<?xml version="1.0" standalone="no"?>
<!DOCTYPE svg PUBLIC "-//W3C//DTD SVG 20010904//EN"
 "http://www.w3.org/TR/2001/REC-SVG-20010904/DTD/svg10.dtd">
<svg version="1.0" xmlns="http://www.w3.org/2000/svg"
 width="789.000000pt" height="495.000000pt" viewBox="0 0 789.000000 495.000000"
 preserveAspectRatio="xMidYMid meet">

<g transform="translate(0.000000,495.000000) scale(0.100000,-0.100000)"
fill="#000000" stroke="none">
<path d="M93 4910 c-12 -5 -30 -21 -40 -37 -17 -26 -18 -125 -18 -2314 0
-2468 -3 -2323 52 -2348 17 -8 227 -11 703 -11 l680 0 0 40 0 40 -672 2 -673
3 -3 2272 -2 2273 22 5 c13 3 1735 4 3828 3 l3805 -3 3 -2278 2 -2277 -705 0
-705 0 0 -40 0 -40 721 0 721 0 29 29 29 29 0 2291 c0 1754 -3 2296 -12 2316
-27 59 274 55 -3905 54 -2194 0 -3847 -4 -3860 -9z"/>
<path d="M4092 4394 c-13 -14 -34 -24 -50 -24 -16 0 -38 -9 -50 -20 -25 -24
-30 -63 -7 -54 8 4 15 12 15 20 0 17 19 18 55 4 52 -20 67 -49 40 -77 -11 -10
-14 -25 -9 -49 5 -30 4 -34 -15 -34 -24 0 -28 -24 -7 -46 16 -16 53 -19 58 -4
2 5 42 11 91 14 79 5 89 4 104 -14 10 -11 23 -20 30 -20 6 0 15 -9 18 -20 6
-20 35 -29 35 -11 0 12 -29 41 -40 41 -4 0 -32 23 -61 50 -50 47 -79 62 -79
40 0 -5 -7 -10 -15 -10 -18 0 -20 26 -2 34 10 5 10 7 0 12 -7 3 -13 12 -13 19
0 7 -8 15 -17 17 -12 2 -18 13 -19 33 -1 88 -5 105 -21 113 -13 7 -24 3 -41
-14z m88 -218 c0 -13 -7 -26 -15 -30 -16 -6 -20 10 -9 38 9 24 24 19 24 -8z"/>
<path d="M4058 4073 c-10 -2 -21 -15 -24 -29 -3 -13 -10 -24 -14 -24 -9 0 -19
-60 -13 -77 11 -30 32 -12 35 30 2 35 7 43 26 45 12 2 22 9 22 17 0 7 6 16 13
18 9 4 8 8 -3 16 -8 6 -17 10 -20 10 -3 -1 -13 -3 -22 -6z"/>
<path d="M4160 4049 c0 -12 -8 -23 -20 -26 -11 -3 -20 -12 -20 -19 0 -8 -7
-17 -15 -20 -8 -4 -15 -17 -15 -29 0 -13 -4 -27 -10 -30 -5 -3 -10 -15 -10
-26 0 -10 -4 -19 -8 -19 -5 0 -14 -19 -21 -42 -7 -22 -18 -47 -24 -54 -44 -49
-45 -54 -18 -54 25 0 90 41 91 58 0 6 4 12 9 12 5 0 16 3 25 6 11 4 19 -2 26
-20 5 -14 15 -26 22 -26 8 0 6 -5 -4 -11 -10 -5 -18 -16 -18 -24 0 -7 -6 -20
-13 -27 -21 -21 -28 -58 -11 -65 8 -3 14 -11 14 -18 0 -7 11 -22 25 -32 18
-13 22 -22 15 -33 -9 -13 -11 -13 -20 0 -9 13 -10 13 -10 0 0 -11 -3 -12 -8
-3 -13 20 -58 33 -71 20 -8 -8 -14 -8 -23 1 -15 15 -48 16 -48 2 0 -5 9 -10
20 -10 11 0 20 -7 20 -15 0 -8 9 -19 20 -25 11 -6 23 -22 26 -35 3 -14 10 -25
15 -25 5 0 9 -13 9 -30 0 -23 -5 -30 -19 -30 -11 0 -21 5 -23 11 -6 19 -58
-13 -65 -40 -3 -14 -11 -30 -17 -34 -8 -6 -7 -10 2 -14 16 -6 16 -79 -1 -86
-9 -3 -11 6 -9 37 4 41 4 41 -15 21 -13 -13 -22 -42 -27 -80 -4 -33 -12 -63
-19 -67 -6 -4 -8 -10 -5 -13 10 -10 28 4 28 21 0 8 9 25 21 37 l21 22 -6 -95
c-3 -52 -5 -96 -6 -96 0 -1 -13 -4 -30 -7 -25 -6 -30 -11 -30 -36 0 -16 6 -32
13 -35 10 -5 10 -7 0 -12 -15 -7 -17 -24 -4 -24 5 0 13 9 16 20 7 21 35 28 35
8 0 -6 8 -1 19 10 10 12 25 22 32 22 12 0 12 -2 0 -9 -8 -5 -15 -27 -15 -52
-1 -34 3 -44 17 -47 13 -3 17 3 17 27 0 16 6 34 14 38 36 22 37 83 1 83 -22 0
-18 23 10 56 14 16 25 35 25 42 0 18 25 42 44 42 9 0 16 -7 16 -15 0 -9 -6
-12 -15 -9 -10 4 -15 0 -15 -15 0 -12 -6 -21 -14 -21 -13 0 -26 -29 -26 -61 0
-9 9 -19 20 -22 13 -3 20 0 20 9 0 8 4 14 8 14 5 0 15 19 22 42 7 24 23 53 37
66 18 17 28 40 36 90 6 37 17 71 24 75 7 4 13 15 13 22 0 8 4 15 8 15 10 0 32
90 32 131 0 17 7 38 17 47 15 16 16 11 10 -68 -4 -47 -7 -111 -7 -142 0 -48
-3 -58 -20 -63 -11 -3 -20 -12 -20 -20 0 -7 -7 -15 -15 -19 -8 -3 -15 -12 -15
-21 0 -8 -4 -15 -10 -15 -6 0 -10 -30 -10 -70 0 -66 -14 -120 -32 -120 -12 0
-10 10 7 27 22 21 10 29 -20 13 -27 -14 -35 -54 -12 -63 8 -4 9 -6 0 -6 -7 -1
-14 -28 -19 -71 l-7 -70 -41 -7 c-22 -3 -35 -8 -28 -11 21 -7 13 -32 -11 -32
-32 0 -54 -31 -63 -86 -7 -51 -44 -103 -44 -63 0 15 -5 19 -15 15 -19 -7 -21
37 -2 56 11 11 37 102 37 129 0 5 -10 8 -22 6 -27 -3 -35 24 -13 46 22 22 19
27 -14 27 -21 0 -32 -6 -36 -20 -3 -11 -11 -20 -16 -20 -5 0 -9 9 -9 20 0 11
-7 20 -15 20 -8 0 -15 -9 -15 -20 0 -11 4 -20 10 -20 5 0 2 -9 -7 -20 -10 -11
-24 -20 -33 -19 -10 0 -11 2 -2 6 6 2 12 16 12 30 0 39 -34 26 -38 -15 -2 -17
-7 -32 -11 -32 -12 0 -17 46 -13 103 4 44 6 47 32 47 16 0 35 7 44 15 21 21
24 19 28 -20 5 -52 28 -29 33 31 3 50 13 85 26 94 4 3 1 10 -6 17 -10 9 -14 6
-19 -18 -7 -38 -38 -71 -58 -64 -9 4 -26 -4 -40 -18 -13 -13 -35 -24 -49 -23
-20 1 -24 -4 -27 -32 -2 -24 -8 -33 -20 -31 -32 3 -42 -1 -42 -16 0 -8 -4 -15
-8 -15 -4 0 -8 -12 -7 -27 0 -18 6 -29 18 -31 12 -2 17 3 17 17 0 11 9 25 21
31 24 13 38 5 21 -12 -7 -7 -12 -20 -12 -29 0 -13 -12 -17 -60 -21 -33 -2 -62
-7 -65 -10 -4 -4 -14 -110 -15 -165 0 -7 -4 -13 -10 -13 -6 0 -10 28 -10 65 0
37 4 65 10 65 6 0 10 14 10 30 0 21 -5 30 -16 30 -8 0 -22 7 -30 15 -14 13
-14 17 0 31 9 8 16 28 16 44 0 22 4 28 15 24 8 -4 15 -1 15 5 0 6 -4 11 -10
11 -16 0 -11 27 6 34 11 4 14 13 11 27 -7 27 1 49 19 49 8 0 14 6 14 14 0 24
-60 17 -70 -8 -6 -15 -9 -3 -9 42 -1 34 -5 62 -11 62 -5 0 -10 -4 -10 -9 0 -5
-8 -8 -17 -7 -10 0 -19 -7 -21 -16 -2 -11 3 -18 12 -18 9 0 16 -4 16 -10 0 -5
-4 -10 -10 -10 -5 0 -10 -9 -10 -20 0 -11 -4 -20 -10 -20 -5 0 -10 5 -10 10 0
6 -4 10 -10 10 -5 0 -10 -7 -10 -15 0 -8 -9 -19 -20 -25 -11 -6 -20 -18 -20
-27 0 -14 -43 -63 -56 -63 -3 0 -19 -9 -35 -21 -16 -11 -29 -18 -29 -15 0 22
54 86 72 86 4 0 8 9 8 20 0 11 7 20 15 20 9 0 20 11 25 25 5 14 15 25 21 25 7
0 10 2 7 5 -10 11 -58 -7 -58 -21 0 -8 -9 -14 -20 -14 -11 0 -20 6 -20 13 0 7
9 20 20 30 25 21 26 37 3 38 -20 1 -12 4 30 13 34 8 35 29 2 44 -14 6 -25 20
-25 30 0 17 -36 42 -60 42 -6 0 -10 -13 -10 -30 0 -20 -5 -30 -15 -30 -10 0
-15 10 -15 30 0 20 -5 30 -15 30 -8 0 -15 7 -15 15 0 8 -4 15 -10 15 -5 0 -10
-9 -10 -20 0 -11 5 -20 10 -20 6 0 10 -7 10 -15 0 -22 -43 -19 -59 4 -16 22
-47 17 -54 -10 -4 -15 -13 -18 -44 -16 -34 2 -38 -1 -41 -23 -2 -14 -10 -29
-18 -33 -8 -4 -14 -19 -14 -32 0 -14 -4 -25 -10 -25 -5 0 -10 -7 -10 -16 0
-14 11 -16 81 -11 87 5 115 1 122 -16 3 -8 -18 -13 -66 -14 -52 -1 -73 -6 -79
-17 -6 -11 -17 -14 -37 -10 -27 6 -28 4 -35 -45 -4 -28 -10 -51 -15 -51 -4 0
-11 -23 -14 -52 -6 -46 -4 -54 19 -75 14 -12 36 -26 50 -29 17 -5 22 -9 14
-14 -17 -10 -72 6 -86 25 -6 8 -14 15 -18 15 -3 0 -6 -63 -6 -140 0 -87 4
-140 10 -140 18 0 12 -82 -7 -96 -24 -18 -53 -17 -53 1 0 8 -4 15 -9 15 -17 0
-23 60 -25 226 0 89 -4 165 -7 168 -3 4 -23 -1 -44 -9 -20 -9 -40 -14 -43 -11
-3 3 0 6 6 6 15 0 16 57 2 62 -6 2 -12 17 -14 33 -2 18 -10 31 -20 33 -9 2
-16 8 -16 13 0 5 -9 9 -20 9 -11 0 -20 -6 -20 -13 0 -7 -8 -20 -17 -29 -43
-42 -52 -56 -58 -100 -4 -27 -11 -48 -16 -48 -14 0 -11 -107 4 -114 10 -5 10
-7 0 -12 -16 -7 -18 -134 -3 -134 6 0 10 -4 10 -10 0 -5 -7 -10 -15 -10 -17 0
-17 -3 -15 159 l1 124 -28 -18 c-15 -9 -35 -26 -43 -36 -8 -11 -30 -23 -48
-28 -29 -9 -32 -8 -32 13 0 12 11 32 25 44 14 12 25 26 25 32 0 9 19 35 48 66
7 7 19 11 27 8 8 -4 27 8 45 27 30 33 39 59 20 59 -5 0 -10 -6 -10 -14 0 -14
-29 -31 -37 -22 -3 3 0 21 7 41 7 20 10 47 8 60 -4 17 0 25 14 28 10 3 18 12
18 21 0 9 6 16 13 16 7 0 23 9 35 20 12 11 28 20 37 20 8 0 15 9 15 20 0 11 7
20 15 20 18 0 20 39 3 41 -7 1 -21 0 -31 -1 -10 -1 -17 4 -16 12 4 32 -1 40
-16 24 -8 -8 -15 -19 -15 -25 0 -6 -8 -11 -17 -11 -16 0 -16 2 -3 11 11 8 8 9
-15 4 -35 -8 -57 -25 -32 -25 29 0 19 -28 -13 -35 -16 -4 -33 -13 -37 -20 -10
-18 -98 -55 -129 -55 -25 0 -79 -49 -89 -80 -3 -10 -12 -21 -20 -24 -8 -3 -15
-15 -15 -26 0 -11 -5 -20 -10 -20 -6 0 -15 -20 -22 -45 -9 -35 -18 -47 -41
-55 -16 -5 -31 -18 -34 -29 -3 -11 -11 -22 -19 -25 -10 -4 -14 -22 -14 -60 0
-30 -4 -56 -9 -58 -5 -1 -15 -52 -22 -113 -7 -60 -16 -112 -19 -115 -4 -3 -12
-77 -19 -165 -7 -88 -16 -162 -21 -165 -6 -3 -13 -34 -16 -68 -4 -34 -10 -62
-14 -62 -8 0 -30 -156 -30 -213 0 -20 -4 -37 -10 -37 -6 0 -10 -37 -10 -90 0
-83 2 -91 26 -115 l26 -26 311 1 c234 0 313 4 319 13 4 7 27 12 53 11 35 -1
50 -7 69 -27 14 -15 29 -27 34 -27 6 0 13 -7 16 -16 6 -14 19 -16 92 -11 48 3
89 9 93 15 3 5 51 15 106 22 170 21 275 -7 275 -75 0 -14 -5 -25 -10 -25 -6 0
-15 -11 -20 -25 -5 -14 -13 -25 -17 -25 -5 0 -25 -15 -45 -34 -20 -19 -53 -39
-73 -46 -43 -14 -45 -34 -5 -52 17 -7 30 -17 30 -21 0 -4 16 -15 35 -23 23 -9
35 -21 35 -33 0 -11 7 -26 15 -35 8 -8 15 -22 15 -30 0 -9 8 -16 19 -16 11 0
22 -8 25 -18 3 -9 20 -23 37 -31 17 -7 33 -21 37 -30 12 -32 36 -40 125 -41
81 0 89 2 94 20 3 11 14 20 24 20 11 0 19 7 19 16 0 12 10 15 43 14 47 -2 87
8 87 21 0 5 50 9 110 9 61 0 110 -3 110 -8 0 -4 19 -16 43 -27 55 -26 171 -26
210 0 15 9 27 20 27 24 0 8 -76 41 -95 41 -8 0 -18 6 -22 13 -4 7 -28 21 -53
32 -88 38 -129 102 -130 203 0 17 -4 32 -10 32 -5 0 -10 9 -10 20 0 11 4 20 9
20 5 0 12 9 16 19 10 32 100 48 188 33 39 -7 74 -17 77 -22 3 -6 42 -14 85
-20 75 -9 80 -12 122 -55 41 -44 63 -56 63 -35 0 6 11 10 24 10 13 0 38 3 55
6 28 6 31 10 31 45 0 38 12 57 56 86 14 9 24 25 24 38 0 13 4 25 9 27 6 2 13
68 16 148 8 226 16 330 24 330 15 0 31 158 31 298 0 78 4 142 9 142 4 0 10 67
13 149 5 164 9 173 69 186 47 9 143 38 149 45 13 13 94 50 111 50 10 0 19 4
19 9 0 18 93 104 148 137 18 10 32 22 32 25 0 4 9 10 19 14 10 3 35 21 56 40
20 19 42 35 49 35 7 0 18 11 24 24 6 13 24 30 41 37 17 8 31 17 31 21 0 5 16
8 35 8 28 0 36 -4 41 -24 10 -40 0 -466 -11 -474 -16 -11 -35 -50 -35 -70 0
-26 20 -42 53 -42 l28 0 -1 333 c-1 182 1 340 5 350 5 11 18 17 40 17 18 0 35
4 37 9 2 5 40 18 86 29 45 12 90 28 99 37 12 12 25 15 52 10 20 -4 38 -10 41
-15 6 -10 78 -30 108 -30 21 0 21 1 4 18 -10 9 -31 24 -47 32 -40 20 -55 35
-55 54 0 9 -9 16 -20 16 -11 0 -23 7 -26 15 -4 8 -17 15 -30 15 -33 0 -75 21
-101 49 -19 22 -27 23 -83 18 -40 -3 -66 -11 -74 -22 -13 -18 -46 -11 -46 9 0
7 -11 18 -24 25 -13 7 -29 24 -35 37 -6 13 -15 24 -21 24 -5 0 -10 7 -10 15 0
9 -12 20 -26 25 -36 14 -44 13 -44 -10 0 -11 4 -20 10 -20 5 0 12 -16 16 -35
5 -28 2 -40 -17 -60 -13 -13 -29 -25 -35 -25 -6 0 -30 -18 -54 -40 -24 -22
-47 -40 -50 -40 -4 0 -10 -12 -13 -28 -3 -15 -15 -38 -26 -51 -12 -13 -21 -28
-21 -33 0 -4 -4 -8 -10 -8 -5 0 -10 8 -10 17 0 9 -3 14 -6 10 -8 -7 -34 17
-34 32 0 5 -5 13 -11 17 -7 4 -10 -4 -8 -23 4 -35 -30 -73 -66 -73 -20 0 -25
-5 -25 -24 0 -14 -10 -30 -25 -40 -25 -17 -26 -17 -19 10 l7 28 -23 -22 c-12
-11 -36 -24 -51 -27 -16 -4 -35 -12 -42 -18 -20 -19 -86 -47 -111 -47 -13 0
-26 -6 -29 -13 -14 -36 -297 -45 -450 -14 -51 10 -58 14 -53 32 4 11 9 46 13
78 6 62 20 76 25 25 4 -42 28 -50 28 -10 0 17 -4 32 -10 34 -5 2 -13 67 -16
146 -4 78 -11 142 -16 142 -4 0 -8 36 -8 80 0 47 4 80 10 80 6 0 10 25 10 55
0 30 -4 55 -10 55 -6 0 -10 31 -10 74 0 82 -3 86 -71 86 -35 0 -39 3 -39 25 0
18 -9 28 -35 41 -19 9 -35 20 -35 25 0 5 -16 9 -35 9 -29 0 -35 -4 -35 -21z
m50 -85 c0 -3 -7 -12 -15 -20 -12 -13 -15 -13 -15 -1 0 7 3 17 7 20 8 8 23 9
23 1z m10 -134 c0 -5 -7 -10 -15 -10 -8 0 -15 5 -15 10 0 6 7 10 15 10 8 0 15
-4 15 -10z m70 -260 c0 -5 -7 -10 -15 -10 -8 0 -15 5 -15 10 0 6 7 10 15 10 8
0 15 -4 15 -10z m1320 -86 c0 -17 6 -28 20 -31 11 -3 20 -9 20 -14 0 -5 7 -9
15 -9 8 0 15 4 15 9 0 5 11 11 25 13 22 5 25 2 25 -23 0 -15 4 -29 9 -31 4 -1
12 -14 16 -28 7 -24 7 -24 -20 5 l-28 30 6 -50 c3 -28 3 -43 0 -35 -4 8 -12
21 -20 28 -7 7 -13 22 -13 33 0 10 -7 19 -15 19 -8 0 -15 -9 -15 -19 0 -14 -5
-18 -20 -14 -11 3 -20 12 -20 19 0 8 -4 14 -9 14 -12 0 -21 -26 -21 -61 0 -19
-5 -29 -15 -29 -9 0 -15 9 -15 25 0 14 5 25 10 25 6 0 10 17 10 38 0 63 12
112 26 112 8 0 14 -11 14 -26z m-1215 -131 c-9 -48 -25 -40 -25 12 0 25 5 45
10 45 6 0 11 15 12 33 1 24 2 21 5 -13 3 -24 2 -59 -2 -77z m-178 60 c-3 -10
-5 -4 -5 12 0 17 2 24 5 18 2 -7 2 -21 0 -30z m1263 -25 c0 -16 -3 -19 -11
-11 -6 6 -8 16 -5 22 11 17 16 13 16 -11z m-1270 -63 c0 -19 -4 -35 -9 -35 -5
0 -12 -8 -14 -17 -3 -10 -5 6 -6 35 -1 40 2 52 14 52 10 0 15 -11 15 -35z
m1400 -60 c0 -8 -4 -15 -10 -15 -5 0 -10 7 -10 15 0 8 5 15 10 15 6 0 10 -7
10 -15z m-1250 -25 c0 -5 -7 -10 -15 -10 -8 0 -15 5 -15 10 0 6 7 10 15 10 8
0 15 -4 15 -10z m-197 -48 c-18 -18 -24 -12 -17 15 5 17 9 19 19 10 9 -9 9
-14 -2 -25z m177 -28 c0 -9 8 -23 18 -30 15 -12 13 -13 -20 -14 -20 0 -39 -6
-42 -12 -4 -7 -4 3 -1 22 7 43 45 72 45 34z m-1082 -36 c-4 -59 -28 -63 -28
-4 0 35 4 46 16 46 12 0 14 -9 12 -42z m1822 7 c0 -9 -6 -12 -15 -9 -8 4 -15
10 -15 15 0 5 7 9 15 9 8 0 15 -7 15 -15z m250 5 c0 -5 -7 -10 -15 -10 -8 0
-15 5 -15 10 0 6 7 10 15 10 8 0 15 -4 15 -10z m-914 -70 c25 -10 26 -14 22
-58 -5 -55 -34 -95 -122 -169 -23 -20 -26 -21 -26 -5 0 10 8 25 18 33 26 24
52 58 52 68 0 5 7 16 15 25 8 8 18 29 21 45 5 24 3 31 -10 31 -9 0 -16 5 -16
10 0 6 -11 10 -25 10 -14 0 -25 5 -25 10 0 13 61 13 96 0z m-1156 -20 c0 -5
15 -10 33 -11 27 0 29 -2 11 -9 -22 -9 -90 -6 -86 4 1 3 2 11 2 16 0 6 9 10
20 10 11 0 20 -4 20 -10z m-825 -29 c-3 -6 -14 -11 -23 -11 -15 1 -15 2 2 15
21 16 32 13 21 -4z m1080 -1 c11 -5 15 -9 9 -9 -7 -1 -15 -25 -18 -55 -5 -33
-13 -57 -22 -60 -8 -3 -14 -12 -14 -19 0 -18 -34 -57 -49 -57 -6 0 -11 7 -11
15 0 8 5 15 10 15 6 0 10 8 10 18 0 11 9 29 20 42 11 13 20 29 20 37 0 7 7 16
15 19 17 7 21 34 5 34 -5 0 -10 7 -10 15 0 17 6 18 35 5z m-1155 -31 c0 -14
-20 -11 -20 4 0 6 -5 4 -11 -5 -5 -10 -14 -18 -19 -18 -6 0 -2 9 7 19 15 19
43 18 43 0z m923 1 c7 -28 -3 -60 -19 -60 -15 0 -18 21 -8 58 8 27 20 29 27 2z
m-886 -62 c-3 -8 -6 -5 -6 6 -1 11 2 17 5 13 3 -3 4 -12 1 -19z m-7 -43 c0
-14 -4 -25 -10 -25 -5 0 -10 11 -10 25 0 14 5 25 10 25 6 0 10 -11 10 -25z
m1790 -5 c0 -5 -4 -10 -10 -10 -5 0 -10 5 -10 10 0 6 5 10 10 10 6 0 10 -4 10
-10z m-1476 -28 c-7 -4 -13 -16 -15 -26 -2 -11 -10 -21 -17 -22 -7 -1 -8 0 -2
3 5 2 10 13 10 22 0 20 9 31 24 31 7 0 7 -3 0 -8z m546 -12 c0 -31 -3 -35 -27
-32 -22 3 -70 -22 -85 -42 -4 -6 -10 -7 -14 -3 -8 8 33 44 61 53 11 4 26 15
33 25 17 25 32 24 32 -1z m114 -2 c-4 -13 -12 -26 -18 -30 -16 -11 -2 -10 28
2 17 6 26 6 26 0 0 -6 -6 -10 -14 -10 -8 0 -18 -9 -21 -20 -3 -11 -10 -20 -14
-20 -5 0 -14 -13 -21 -29 -13 -31 -40 -50 -40 -27 0 41 14 76 30 76 12 0 17 8
17 31 0 17 6 35 14 40 20 13 21 12 13 -13z m-747 -10 c-3 -8 -6 -5 -6 6 -1 11
2 17 5 13 3 -3 4 -12 1 -19z m840 -34 c-3 -3 -12 -4 -19 -1 -8 3 -5 6 6 6 11
1 17 -2 13 -5z m-177 -18 c0 -8 -7 -16 -15 -20 -10 -4 -15 1 -15 14 0 11 7 20
15 20 8 0 15 -6 15 -14z m430 -26 c0 -5 -4 -10 -10 -10 -5 0 -10 5 -10 10 0 6
5 10 10 10 6 0 10 -4 10 -10z m-1053 -37 c-3 -10 -5 -4 -5 12 0 17 2 24 5 18
2 -7 2 -21 0 -30z m1428 17 c-3 -5 -14 -10 -23 -10 -15 0 -15 2 -2 10 20 13
33 13 25 0z m-375 -20 c0 -12 10 -24 23 -30 12 -5 16 -9 10 -9 -7 -1 -13 -10
-13 -21 0 -11 -4 -20 -10 -20 -5 0 -10 -9 -10 -19 0 -10 -7 -22 -16 -25 -14
-5 -16 -1 -10 31 3 21 6 55 6 76 0 20 5 37 10 37 6 0 10 -9 10 -20z m-1053
-57 c-3 -10 -5 -4 -5 12 0 17 2 24 5 18 2 -7 2 -21 0 -30z m-177 -28 c0 -8 -4
-15 -10 -15 -5 0 -7 7 -4 15 4 8 8 15 10 15 2 0 4 -7 4 -15z m3177 -27 c-3 -8
-6 -5 -6 6 -1 11 2 17 5 13 3 -3 4 -12 1 -19z m-2561 -82 c18 -19 18 -36 0
-36 -8 0 -21 -3 -30 -6 -13 -5 -16 1 -16 25 0 34 21 42 46 17z m361 -2 c-29
-16 -57 -13 -57 6 0 5 19 10 43 10 l42 -1 -28 -15z m513 -4 c0 -5 -8 -10 -17
-10 -15 0 -16 2 -3 10 19 12 20 12 20 0z m-460 -15 c0 -8 -8 -15 -17 -15 -15
0 -16 -2 -3 -10 9 -6 17 -5 21 2 4 6 14 8 23 5 12 -5 16 -21 16 -67 0 -58 -1
-61 -22 -58 -14 2 -24 11 -26 23 -2 12 -12 26 -22 33 -22 14 -27 3 -8 -16 17
-17 -5 -32 -45 -32 -32 0 -45 23 -27 45 11 14 10 14 -14 6 -15 -6 -26 -7 -26
-1 0 16 42 49 71 55 16 4 34 15 39 26 13 23 40 25 40 4z m-159 -25 c5 0 9 -4
9 -10 0 -13 -41 -60 -52 -60 -15 0 -8 58 7 64 8 3 16 13 16 23 1 17 2 17 6 1
2 -10 9 -18 14 -18z m39 10 c0 -11 -4 -20 -10 -20 -5 0 -10 9 -10 20 0 11 5
20 10 20 6 0 10 -9 10 -20z m397 -41 c-3 -23 -11 -45 -17 -49 -6 -4 -14 -36
-17 -71 -3 -35 -11 -68 -17 -72 -8 -6 -7 -10 2 -14 6 -2 12 -15 12 -28 0 -13
-6 -26 -12 -28 -8 -3 -6 -6 5 -6 9 -1 17 3 17 8 0 5 9 13 20 16 11 3 20 15 20
24 0 20 63 42 117 40 27 0 27 -1 6 -9 -25 -10 -31 -30 -9 -30 14 0 29 -37 20
-52 -3 -4 -12 -8 -20 -8 -8 0 -14 -4 -14 -9 0 -5 -7 -17 -16 -25 -8 -9 -11
-16 -5 -16 17 0 13 -27 -4 -34 -8 -3 -15 -17 -15 -31 0 -14 -4 -25 -10 -25 -5
0 -10 -4 -10 -10 0 -5 5 -10 11 -10 11 0 39 -24 39 -34 0 -10 -40 -46 -50 -46
-6 0 -10 10 -9 23 4 43 -1 67 -14 67 -8 0 -19 12 -25 26 -9 19 -17 24 -33 19
-31 -10 -119 -102 -119 -125 0 -11 -4 -20 -10 -20 -5 0 -10 -16 -10 -35 0 -19
5 -35 10 -35 6 0 10 -11 10 -24 0 -30 -38 -46 -54 -24 -16 21 -36 10 -36 -19
0 -40 -22 -103 -36 -103 -7 0 -20 -8 -30 -17 -29 -29 -87 -42 -121 -28 -17 7
-33 20 -36 29 -4 9 -13 16 -22 16 -8 0 -15 5 -15 10 0 6 -7 10 -16 10 -9 0
-18 9 -21 20 -3 11 -9 20 -14 20 -4 0 -13 16 -20 35 -7 19 -16 35 -20 35 -3 0
-9 18 -13 40 -3 22 -11 40 -16 40 -6 0 -10 7 -10 15 0 17 -35 21 -45 4 -8 -13
-30 -6 -31 9 -1 7 -2 43 -3 81 -1 44 -6 75 -15 83 -7 8 -17 24 -20 36 -12 38
21 26 35 -13 7 -19 16 -35 20 -35 4 0 9 -9 12 -20 3 -11 10 -20 16 -20 15 0
14 40 -1 41 -10 0 -10 2 0 6 6 2 12 13 12 24 0 16 7 19 40 19 22 0 40 -5 40
-10 0 -22 60 -32 195 -35 77 -1 134 0 128 2 -8 3 -11 14 -7 28 6 26 -12 43
-29 26 -19 -19 -27 -12 -27 24 0 39 -3 40 -69 24 -24 -5 -45 -8 -47 -6 -2 2 7
16 20 30 21 22 34 27 76 27 27 0 50 -4 50 -10 0 -11 30 -14 31 -2 3 27 9 46
17 51 6 3 12 16 13 28 3 18 7 20 21 9 24 -18 35 -66 15 -66 -20 0 -27 -12 -21
-36 4 -15 15 -19 52 -20 26 -1 41 0 35 3 -15 5 -18 103 -4 103 5 0 13 14 16
32 4 17 14 38 22 46 21 22 12 47 -20 50 -65 8 -6 71 67 72 l39 0 -6 -41z
m-1240 9 c-3 -8 -6 -5 -6 6 -1 11 2 17 5 13 3 -3 4 -12 1 -19z m450 -4 c-3 -3
-12 -4 -19 -1 -8 3 -5 6 6 6 11 1 17 -2 13 -5z m373 -79 l0 -25 -35 17 c-19 9
-35 20 -35 25 0 4 16 8 35 8 31 0 35 -3 35 -25z m-116 -10 c8 -21 -3 -45 -20
-45 -8 0 -14 7 -14 15 0 8 -8 15 -17 15 -15 0 -14 2 3 15 25 19 40 19 48 0z
m-324 -35 c0 -4 9 -10 20 -13 13 -3 20 -14 20 -31 0 -14 8 -30 18 -35 9 -6 11
-11 5 -11 -9 0 -13 -21 -13 -71 0 -62 -2 -71 -20 -76 -14 -4 -20 -14 -20 -34
0 -16 5 -29 10 -29 6 0 10 -9 10 -20 0 -11 -4 -20 -10 -20 -5 0 -13 -18 -16
-40 -4 -22 -10 -40 -15 -40 -5 0 -9 -13 -9 -30 0 -16 5 -30 10 -30 6 0 10 -11
10 -24 0 -14 7 -31 15 -40 8 -8 15 -22 15 -30 0 -9 -7 -16 -15 -16 -8 0 -15 9
-15 20 0 11 -4 20 -9 20 -5 0 -12 14 -16 30 -4 17 -14 38 -23 46 -12 12 -16
34 -15 78 0 33 -2 53 -4 44 -3 -10 -8 -18 -13 -18 -5 0 -11 -10 -14 -22 -2
-13 -4 5 -2 39 2 48 -1 64 -15 74 -10 7 -20 33 -24 65 -4 34 -13 58 -23 65
-15 9 -15 10 1 5 10 -3 25 -6 33 -6 10 0 14 -13 14 -45 0 -25 5 -45 10 -45 6
0 10 14 10 30 0 17 5 30 10 30 6 0 10 32 10 75 0 51 4 77 13 82 8 4 16 16 20
25 6 17 37 15 37 -2z m160 6 c0 -20 -13 -27 -30 -15 -13 8 -13 10 0 19 21 14
30 12 30 -4z m-295 -21 c20 -21 25 -36 25 -75 0 -38 -4 -50 -15 -50 -21 0 -31
30 -15 40 10 6 8 11 -9 21 -15 10 -21 24 -21 51 0 21 2 38 5 38 2 0 16 -11 30
-25z m455 -25 c0 -11 7 -20 15 -20 8 0 15 8 15 17 0 13 3 14 12 5 8 -8 8 -15
-1 -25 -8 -10 -9 -22 -1 -41 8 -23 7 -26 -10 -26 -11 0 -20 -7 -20 -15 0 -8 5
-15 10 -15 15 0 12 -19 -4 -36 -23 -23 -44 -16 -51 16 -5 21 -14 32 -32 36
-22 6 -23 8 -9 16 9 5 16 18 16 30 0 13 5 18 13 15 10 -4 13 2 9 20 -3 15 1
29 9 34 22 14 29 11 29 -11z m90 -15 c0 -8 -4 -15 -10 -15 -5 0 -7 7 -4 15 4
8 8 15 10 15 2 0 4 -7 4 -15z m-210 -15 c-35 -24 -54 -31 -30 -11 14 11 30 21
35 21 6 0 3 -5 -5 -10z m57 -116 c-3 -3 -12 -4 -19 -1 -8 3 -5 6 6 6 11 1 17
-2 13 -5z m818 -206 c-4 -73 -10 -134 -16 -136 -5 -2 -9 -25 -9 -50 0 -26 -3
-63 -6 -83 -6 -32 -8 -35 -35 -31 -31 5 -36 15 -16 37 6 8 18 21 25 29 15 19
17 196 2 196 -5 0 -10 16 -10 35 0 19 5 35 10 35 6 0 10 13 10 28 0 24 30 72
46 72 2 0 2 -60 -1 -132z m-107 -55 c-5 -25 -28 -28 -28 -4 0 12 6 21 16 21 9
0 14 -7 12 -17z m-1047 -123 c5 0 9 -18 9 -40 0 -28 -4 -40 -14 -40 -23 0 -29
18 -20 68 4 26 9 39 11 30 3 -10 9 -18 14 -18z m969 -64 c0 -2 -7 -6 -15 -10
-8 -3 -15 -1 -15 4 0 6 7 10 15 10 8 0 15 -2 15 -4z"/>
<path d="M3510 2430 c0 -13 5 -20 13 -17 6 2 12 10 12 17 0 7 -6 15 -12 18 -8
2 -13 -5 -13 -18z"/>
<path d="M3730 2450 c0 -5 7 -10 15 -10 8 0 15 5 15 10 0 6 -7 10 -15 10 -8 0
-15 -4 -15 -10z"/>
<path d="M3535 2180 c3 -5 8 -10 11 -10 2 0 4 5 4 10 0 6 -5 10 -11 10 -5 0
-7 -4 -4 -10z"/>
<path d="M3610 2125 c0 -25 -4 -45 -10 -45 -5 0 -10 -11 -10 -25 0 -14 5 -25
10 -25 6 0 10 -7 10 -15 0 -20 24 -19 40 0 18 21 -5 155 -26 155 -10 0 -14
-13 -14 -45z"/>
<path d="M3210 2025 c0 -14 -4 -25 -10 -25 -15 0 -12 -77 3 -84 10 -5 10 -7 0
-12 -7 -3 -13 -16 -13 -29 0 -25 37 -41 71 -30 17 6 19 16 19 86 0 66 -3 82
-20 99 -28 28 -50 26 -50 -5z"/>
<path d="M3390 1991 c0 -5 -20 -14 -45 -20 -34 -9 -45 -16 -45 -31 0 -11 5
-20 10 -20 6 0 10 -13 10 -30 0 -16 -4 -30 -9 -30 -5 0 -15 -25 -22 -55 -7
-30 -16 -55 -21 -55 -4 0 -8 -4 -8 -10 0 -5 16 -12 35 -16 19 -3 35 -10 35
-15 0 -5 14 -9 30 -9 32 0 40 14 15 24 -23 9 -19 46 5 46 14 0 20 6 18 17 -2
13 5 17 32 17 35 1 35 1 42 56 3 30 11 56 17 58 20 7 12 42 -9 42 -11 0 -29 9
-40 20 -20 20 -50 27 -50 11z"/>
<path d="M3536 1964 c-7 -19 -8 -169 -1 -162 7 6 16 178 11 178 -2 0 -7 -7
-10 -16z"/>
<path d="M3435 1780 c-4 -6 5 -10 19 -10 14 0 26 5 26 10 0 6 -9 10 -19 10
-11 0 -23 -4 -26 -10z"/>
<path d="M3404 1719 c-10 -17 13 -36 27 -22 12 12 4 33 -11 33 -5 0 -12 -5
-16 -11z"/>
<path d="M3238 2223 c7 -3 16 -2 19 1 4 3 -2 6 -13 5 -11 0 -14 -3 -6 -6z"/>
<path d="M3190 2190 c0 -5 7 -10 16 -10 8 0 12 5 9 10 -3 6 -10 10 -16 10 -5
0 -9 -4 -9 -10z"/>
<path d="M3975 4030 c-3 -6 1 -7 9 -4 18 7 21 14 7 14 -6 0 -13 -4 -16 -10z"/>
<path d="M3931 3944 c0 -11 3 -14 6 -6 3 7 2 16 -1 19 -3 4 -6 -2 -5 -13z"/>
<path d="M3923 3903 c-15 -5 -18 -33 -4 -33 5 0 11 9 14 20 3 11 4 20 4 19 -1
0 -8 -3 -14 -6z"/>
<path d="M3955 3875 c-16 -20 -34 -34 -41 -31 -14 5 -24 -24 -24 -71 0 -18 -4
-33 -9 -33 -5 0 -12 -13 -16 -30 -4 -16 -10 -30 -14 -30 -4 0 -13 -18 -20 -41
-11 -37 -25 -59 -60 -96 -7 -7 -11 -16 -9 -18 7 -8 58 19 58 30 0 6 11 24 25
40 13 17 28 35 33 40 4 6 14 31 21 57 11 37 19 49 42 57 16 5 29 17 29 26 0 9
6 18 14 21 8 3 17 21 20 40 4 19 11 34 16 34 6 0 10 9 10 20 0 33 -41 25 -75
-15z"/>
<path d="M3853 3353 c-13 -3 -24 -14 -28 -31 -4 -15 -12 -31 -18 -35 -8 -6 -6
-7 5 -3 16 5 17 -3 13 -92 -4 -65 -2 -90 4 -77 5 11 10 42 10 68 1 29 7 55 16
63 8 9 15 24 15 35 0 10 5 19 10 19 6 0 10 -24 11 -52 1 -42 3 -48 9 -28 12
37 12 102 0 95 -6 -4 -10 5 -10 19 0 14 -3 25 -7 25 -5 -1 -18 -4 -30 -6z"/>
<path d="M3544 3265 c-36 -39 -49 -65 -32 -65 17 0 55 45 62 74 8 32 8 32 -30
-9z"/>
<path d="M3370 3221 c0 -5 14 -15 30 -23 17 -7 30 -16 30 -20 0 -13 20 -9 35
6 12 12 8 15 -25 20 -22 3 -40 11 -40 16 0 6 -7 10 -15 10 -8 0 -15 -4 -15 -9z"/>
<path d="M3590 3215 c0 -8 5 -15 10 -15 6 0 10 7 10 15 0 8 -4 15 -10 15 -5 0
-10 -7 -10 -15z"/>
<path d="M3771 3201 c-8 -5 -20 -7 -27 -4 -13 5 -34 -52 -34 -94 0 -13 -4 -23
-10 -23 -5 0 -10 -13 -10 -30 0 -50 15 -34 30 33 18 80 43 111 33 40 -3 -26
-10 -49 -15 -51 -4 -2 -8 -20 -8 -39 0 -28 3 -34 16 -29 9 3 20 6 25 6 5 0 9
7 9 15 0 8 -4 15 -10 15 -5 0 -10 11 -10 25 0 14 4 25 10 25 11 0 23 57 18 93
-2 20 -7 24 -17 18z"/>
<path d="M2940 3180 c0 -5 7 -10 15 -10 8 0 15 5 15 10 0 6 -7 10 -15 10 -8 0
-15 -4 -15 -10z"/>
<path d="M2745 3173 c-6 -5 -16 -30 -23 -58 -7 -27 -17 -52 -22 -55 -4 -3 -11
-21 -15 -41 l-7 -37 68 -4 c84 -5 124 0 124 18 0 8 5 15 10 15 6 1 15 3 20 4
6 1 21 3 35 4 24 1 25 4 25 67 0 55 -3 65 -15 60 -10 -4 -15 1 -15 15 0 17 -5
20 -32 17 -17 -2 -33 -9 -34 -16 -1 -7 0 -8 3 -2 7 15 23 12 23 -5 0 -8 5 -15
10 -15 6 0 10 -4 10 -9 0 -5 -9 -7 -20 -4 -14 4 -20 0 -20 -12 0 -15 -1 -15
-17 1 -10 10 -17 19 -15 21 1 2 -4 10 -12 18 -18 18 -67 29 -81 18z m75 -58
c0 -8 -9 -15 -20 -15 -20 0 -26 11 -13 23 12 13 33 7 33 -8z m36 -32 c-15 -4
-16 -7 -5 -14 9 -6 10 -9 2 -9 -6 0 -14 4 -17 9 -3 5 -16 7 -29 5 -20 -4 -21
-4 -2 5 11 5 31 9 45 9 19 0 20 -2 6 -5z m-79 -49 c-3 -3 -12 -4 -19 -1 -8 3
-5 6 6 6 11 1 17 -2 13 -5z m50 -10 c-3 -3 -12 -4 -19 -1 -8 3 -5 6 6 6 11 1
17 -2 13 -5z"/>
<path d="M3641 3158 c-1 -10 -5 -18 -11 -18 -6 0 -10 -33 -10 -80 0 -44 4 -80
9 -80 19 0 35 123 22 165 -5 17 -10 22 -10 13z"/>
<path d="M4190 3080 c0 -5 -7 -10 -15 -10 -8 0 -15 -9 -15 -20 0 -11 5 -20 10
-20 6 0 10 7 10 15 0 8 7 15 15 15 8 0 15 7 15 15 0 8 -4 15 -10 15 -5 0 -10
-4 -10 -10z"/>
<path d="M3813 3073 c-15 -5 -18 -33 -4 -33 8 0 25 30 19 35 -2 1 -9 0 -15 -2z"/>
<path d="M2646 3055 c4 -8 8 -15 10 -15 2 0 4 7 4 15 0 8 -4 15 -10 15 -5 0
-7 -7 -4 -15z"/>
<path d="M2610 3020 c0 -5 6 -10 14 -10 8 0 18 5 21 10 3 6 -3 10 -14 10 -12
0 -21 -4 -21 -10z"/>
<path d="M2880 2953 c-8 -3 -25 -17 -37 -30 -13 -13 -23 -19 -23 -14 0 6 -7
11 -15 11 -9 0 -15 -9 -15 -25 0 -26 24 -35 33 -12 4 9 7 9 15 -1 7 -10 16 -7
40 15 18 15 32 35 32 45 0 19 -5 20 -30 11z"/>
<path d="M4113 2913 c-4 -10 -10 -20 -14 -23 -15 -10 -14 -70 1 -70 6 0 10 16
10 35 0 24 5 35 15 35 8 0 15 9 15 20 0 25 -18 26 -27 3z"/>
<path d="M3810 2900 c-13 -8 -12 -10 3 -10 9 0 17 5 17 10 0 12 -1 12 -20 0z"/>
<path d="M2475 2790 c-3 -6 1 -7 9 -4 18 7 21 14 7 14 -6 0 -13 -4 -16 -10z"/>
<path d="M4520 409 c0 -24 4 -30 18 -27 10 2 18 14 20 31 3 22 -1 27 -17 27
-17 0 -21 -6 -21 -31z"/>
<path d="M5642 413 c2 -17 10 -29 21 -31 13 -3 17 3 17 27 0 25 -4 31 -21 31
-16 0 -20 -5 -17 -27z"/>
<path d="M4820 285 c0 -138 1 -145 20 -145 18 0 20 7 20 74 0 78 13 106 49
106 32 0 41 -22 41 -102 0 -71 2 -78 20 -78 19 0 20 7 20 90 0 77 -3 93 -20
110 -22 22 -79 27 -98 8 -9 -9 -12 -2 -12 35 0 40 -3 47 -20 47 -19 0 -20 -7
-20 -145z"/>
<path d="M5290 287 l0 -143 64 -2 c56 -1 66 1 87 24 20 21 24 36 24 84 -1 48
-5 64 -25 85 -26 27 -77 34 -98 13 -9 -9 -12 -2 -12 35 0 40 -3 47 -20 47 -19
0 -20 -7 -20 -143z m118 21 c7 -7 12 -33 12 -58 0 -50 -13 -70 -45 -70 -32 0
-45 20 -45 66 0 61 44 96 78 62z"/>
<path d="M2497 404 c-4 -4 -7 -16 -7 -26 0 -10 -7 -18 -15 -18 -8 0 -15 -9
-15 -20 0 -11 7 -20 15 -20 12 0 15 -14 15 -64 0 -83 23 -116 81 -116 32 0 39
3 39 19 0 15 -8 21 -32 23 -33 3 -33 3 -36 65 l-3 62 33 3 c25 2 34 8 36 26 3
19 -1 22 -32 22 -28 0 -35 4 -38 22 -3 23 -27 35 -41 22z"/>
<path d="M2677 404 c-4 -4 -7 -16 -7 -26 0 -10 -7 -18 -15 -18 -8 0 -15 -9
-15 -20 0 -11 7 -20 15 -20 12 0 15 -14 15 -70 0 -86 18 -110 80 -110 33 0 40
3 40 19 0 15 -8 21 -32 23 -33 3 -33 3 -36 65 l-3 62 33 3 c25 2 34 8 36 26 3
19 -1 22 -32 22 -28 0 -35 4 -38 22 -3 23 -27 35 -41 22z"/>
<path d="M4657 404 c-4 -4 -7 -16 -7 -26 0 -10 -7 -18 -15 -18 -8 0 -15 -9
-15 -20 0 -11 7 -20 15 -20 12 0 15 -14 15 -70 0 -86 18 -110 80 -110 33 0 40
3 40 19 0 15 -8 21 -32 23 -33 3 -33 3 -36 65 l-3 62 33 3 c25 2 34 8 36 26 3
19 -1 22 -32 22 -28 0 -35 4 -38 22 -3 23 -27 35 -41 22z"/>
<path d="M1910 250 c0 -103 1 -110 20 -110 18 0 20 7 20 74 0 79 13 106 51
106 26 0 39 -37 39 -116 0 -57 2 -64 20 -64 18 0 20 7 20 74 0 81 15 110 54
104 19 -3 21 -11 26 -88 5 -79 7 -85 28 -88 21 -3 22 -1 22 78 0 78 -10 116
-34 132 -19 13 -69 9 -87 -8 -17 -15 -19 -15 -34 0 -19 18 -57 21 -86 6 -13
-7 -19 -7 -19 0 0 5 -9 10 -20 10 -19 0 -20 -7 -20 -110z"/>
<path d="M2279 341 c-20 -16 -22 -21 -10 -35 12 -15 16 -15 31 -1 18 17 48 19
69 6 24 -16 4 -38 -39 -44 -23 -3 -50 -13 -61 -23 -24 -22 -25 -66 -1 -87 21
-19 82 -23 99 -6 8 8 13 8 17 0 4 -6 14 -11 22 -11 11 0 14 18 14 90 0 77 -3
93 -20 110 -26 26 -89 27 -121 1z m91 -146 c-14 -17 -66 -20 -75 -5 -11 17 14
39 48 42 35 3 47 -13 27 -37z"/>
<path d="M2828 355 c-3 -4 11 -55 32 -113 26 -74 35 -113 29 -127 -13 -33 -10
-45 10 -45 20 0 20 -1 86 183 28 79 32 99 20 103 -23 9 -33 -4 -56 -76 -13
-39 -25 -70 -29 -70 -3 0 -16 33 -30 72 -23 67 -44 91 -62 73z"/>
<path d="M3060 215 c0 -138 1 -145 20 -145 17 0 20 7 20 40 0 38 1 39 30 34
70 -15 110 25 110 110 0 59 -37 106 -84 106 -18 0 -37 -5 -43 -11 -8 -8 -13
-8 -17 0 -4 6 -14 11 -22 11 -11 0 -14 -25 -14 -145z m118 93 c16 -16 16 -100
0 -116 -18 -18 -56 -14 -68 7 -15 29 -12 87 6 105 18 19 45 21 62 4z"/>
<path d="M3313 336 c-25 -22 -28 -31 -28 -86 0 -55 3 -64 28 -86 22 -18 40
-24 78 -24 42 0 49 3 49 20 0 16 -7 20 -36 20 -42 0 -74 15 -74 35 0 12 15 15
65 15 l65 0 0 40 c0 81 -85 119 -147 66z m91 -32 c26 -25 19 -34 -29 -34 -46
0 -58 13 -33 38 17 17 44 15 62 -4z"/>
<path d="M3510 250 c0 -101 2 -110 19 -110 16 0 19 9 23 75 4 86 20 112 62
101 24 -6 25 -10 28 -89 3 -76 5 -82 26 -85 21 -3 22 -1 22 81 0 70 -3 89 -21
111 -23 29 -74 36 -98 14 -11 -10 -14 -10 -18 0 -3 6 -13 12 -24 12 -18 0 -19
-8 -19 -110z"/>
<path d="M3744 347 c-3 -8 -3 -56 -2 -108 3 -89 4 -94 26 -97 21 -3 22 0 22
72 0 79 13 106 50 106 29 0 40 -31 40 -109 0 -64 2 -71 20 -71 18 0 20 7 20
88 0 75 -3 92 -20 110 -22 24 -59 28 -91 12 -13 -7 -19 -7 -19 0 0 15 -40 12
-46 -3z"/>
<path d="M3960 346 c0 -7 16 -58 35 -111 30 -83 34 -103 25 -128 -13 -39 -13
-39 12 -35 20 3 30 23 70 138 26 74 48 139 48 143 0 5 -10 7 -22 5 -17 -2 -27
-19 -48 -83 l-27 -80 -27 83 c-22 65 -32 82 -47 82 -10 0 -19 -6 -19 -14z"/>
<path d="M4273 334 c-20 -20 -24 -31 -18 -57 6 -29 7 -47 5 -92 0 -8 0 -21 1
-27 0 -7 -2 -22 -6 -34 -13 -41 44 -72 110 -60 44 9 65 30 65 66 0 36 -12 44
-80 50 -64 6 -69 22 -9 31 49 7 79 37 79 80 0 19 5 29 15 29 8 0 15 9 15 20 0
18 -7 20 -75 20 -68 0 -79 -3 -102 -26z m92 -49 c0 -27 -3 -30 -30 -30 -21 0
-31 5 -33 18 -6 33 6 49 35 45 24 -3 28 -8 28 -33z m25 -160 c0 -31 -82 -33
-88 -2 -3 14 4 17 42 17 34 0 46 -4 46 -15z"/>
<path d="M4480 336 c0 -19 5 -26 20 -26 18 0 20 -7 20 -85 l0 -85 40 0 c33 0
40 3 40 20 0 13 -7 20 -20 20 -17 0 -19 8 -22 88 l-3 87 -37 3 c-35 3 -38 1
-38 -22z"/>
<path d="M5050 270 c0 -77 3 -93 20 -110 22 -22 79 -27 98 -8 9 9 12 9 12 0 0
-7 9 -12 20 -12 19 0 20 7 20 110 0 103 -1 110 -20 110 -18 0 -20 -7 -20 -78
0 -82 -9 -102 -45 -102 -36 0 -45 20 -45 102 0 71 -2 78 -20 78 -19 0 -20 -7
-20 -90z"/>
<path d="M5600 340 c0 -13 8 -24 20 -27 17 -4 20 -15 22 -87 l3 -81 38 -3 c31
-3 37 0 37 16 0 11 -9 22 -20 25 -17 4 -20 15 -22 88 l-3 84 -37 3 c-33 3 -38
0 -38 -18z"/>
<path d="M5784 337 c-22 -19 -28 -34 -32 -78 -4 -49 -1 -59 23 -87 35 -42 93
-45 130 -7 21 20 25 34 25 85 0 51 -4 65 -25 85 -32 33 -84 33 -121 2z m90
-33 c18 -18 21 -76 6 -105 -12 -21 -50 -25 -68 -7 -7 7 -12 33 -12 58 0 66 36
92 74 54z"/>
<path d="M4157 184 c-12 -13 -8 -42 8 -48 25 -9 46 5 43 28 -3 21 -37 34 -51
20z"/>
<path d="M5504 175 c-4 -9 0 -23 9 -32 21 -21 49 -9 45 19 -4 28 -45 38 -54
13z"/>
</g>
</svg>
